<svg version="1.1" width="64" height="64" viewBox="0 0 64 64" xmlns="http://www.w3.org/2000/svg">

    <rect x="1" y="1" width="62" height="62" fill="#222" rx="4" stroke="#777" stroke-width="2" />

    <g fill="#f1f1f1">
        <path transform="translate(7,7) scale(.72, .72)"
            d="M 35 7 C 33.343 7 32 8.343 32 10 L 32 13 L 26 13 C 22.691 13 20 15.691 20 19 L 20 28 C 20 31.309 22.691 34 26 34 L 44 34 C 47.309 34 50 31.309 50 28 L 50 19 C 50 15.691 47.309 13 44 13 L 38 13 L 38 10 C 38 8.343 36.657 7 35 7 z M 29.5 21 C 30.881 21 32 22.119 32 23.5 C 32 24.881 30.881 26 29.5 26 C 28.119 26 27 24.881 27 23.5 C 27 22.119 28.119 21 29.5 21 z M 40.5 21 C 41.881 21 43 22.119 43 23.5 C 43 24.881 41.881 26 40.5 26 C 39.119 26 38 24.881 38 23.5 C 38 22.119 39.119 21 40.5 21 z M 35 36 C 19.435 36 13.563172 45.058031 11.451172 50.457031 C 10.609172 52.607031 10.8845 55.032406 12.1875 56.941406 C 13.4945 58.856406 15.657563 60 17.976562 60 L 52.023438 60 C 54.343437 60 56.507453 58.856406 57.814453 56.941406 C 59.116453 55.032406 59.390828 52.607984 58.548828 50.458984 C 56.435828 45.058984 50.565 36 35 36 z" />

    </g>

</svg>